<svg xmlns="http://www.w3.org/2000/svg" width="29" height="21" viewBox="0 0 29 21">
  <metadata><?xpacket begin="﻿" id="W5M0MpCehiHzreSzNTczkc9d"?>
<x:xmpmeta xmlns:x="adobe:ns:meta/" x:xmptk="Adobe XMP Core 5.6-c142 79.160924, 2017/07/13-01:06:39        ">
   <rdf:RDF xmlns:rdf="http://www.w3.org/1999/02/22-rdf-syntax-ns#">
      <rdf:Description rdf:about=""/>
   </rdf:RDF>
</x:xmpmeta>
                                                                                                    
                                                                                                    
                                                                                                    
                                                                                                    
                                                                                                    
                                                                                                    
                                                                                                    
                                                                                                    
                                                                                                    
                                                                                                    
                                                                                                    
                                                                                                    
                                                                                                    
                                                                                                    
                                                                                                    
                                                                                                    
                                                                                                    
                                                                                                    
                                                                                                    
                                                                                                    
                           
<?xpacket end="w"?></metadata>
<defs>
    <style>
      .cls-1 {
        fill: #fff;
        fill-rule: evenodd;
      }
    </style>
  </defs>
  <path id="arrows" class="cls-1" d="M371.881,23.981l0.005-.008-2.572-4.713a0.5,0.5,0,0,0-.7-0.185,0.538,0.538,0,0,0-.179.722l2.119,3.918H343.509a0.527,0.527,0,0,0,0,1.054h27.049l-2.121,3.945a0.539,0.539,0,0,0,.181.722,0.487,0.487,0,0,0,.257.073,0.5,0.5,0,0,0,.439-0.26l2.572-4.739A0.533,0.533,0,0,0,371.881,23.981Zm-28.8,11.049,0,0.008,2.574,4.713a0.5,0.5,0,0,0,.7.186,0.538,0.538,0,0,0,.179-0.722L344.411,35.3h27.076a0.527,0.527,0,0,0,0-1.054H344.41l2.123-3.945a0.537,0.537,0,0,0-.181-0.721,0.492,0.492,0,0,0-.258-0.073,0.506,0.506,0,0,0-.439.259L343.08,34.5A0.538,0.538,0,0,0,343.085,35.029Z" transform="translate(-343 -19)"/>
</svg>
