<svg xmlns="http://www.w3.org/2000/svg" width="16" height="19" viewBox="0 0 16 19">
  <metadata><?xpacket begin="﻿" id="W5M0MpCehiHzreSzNTczkc9d"?>
<x:xmpmeta xmlns:x="adobe:ns:meta/" x:xmptk="Adobe XMP Core 5.6-c142 79.160924, 2017/07/13-01:06:39        ">
   <rdf:RDF xmlns:rdf="http://www.w3.org/1999/02/22-rdf-syntax-ns#">
      <rdf:Description rdf:about=""/>
   </rdf:RDF>
</x:xmpmeta>
                                                                                                    
                                                                                                    
                                                                                                    
                                                                                                    
                                                                                                    
                                                                                                    
                                                                                                    
                                                                                                    
                                                                                                    
                                                                                                    
                                                                                                    
                                                                                                    
                                                                                                    
                                                                                                    
                                                                                                    
                                                                                                    
                                                                                                    
                                                                                                    
                                                                                                    
                                                                                                    
                           
<?xpacket end="w"?></metadata>
<defs>
    <style>
      .cls-1 {
        fill: #524fd6;
        fill-rule: evenodd;
      }
    </style>
  </defs>
  <path class="cls-1" d="M708,43.383c4.022,2.153,13.115,2.153,16,0,0-4.629-3.582-7.367-8-7.367S708,38.754,708,43.383Zm3.576-11.465a24.147,24.147,0,0,0,8.467.039c1.016-2.692-.45-5.171-2.2-5.094a5.683,5.683,0,0,0-.481-0.852C712.684,25.817,710.91,29.369,711.575,31.918Zm4.375,7.392h0a2.128,2.128,0,0,0,2.071-2.169V35.172A2.128,2.128,0,0,0,715.95,33h0a2.127,2.127,0,0,0-2.07,2.169v1.969A2.127,2.127,0,0,0,715.95,39.31Zm-0.113-1.969h0.257a2.128,2.128,0,0,0,2.071-2.169h0A2.128,2.128,0,0,0,716.094,33h-0.257a2.127,2.127,0,0,0-2.07,2.169h0A2.127,2.127,0,0,0,715.837,37.341Zm-4.1-3.8h8.165a0.816,0.816,0,0,0,.8-0.833h0a0.816,0.816,0,0,0-.8-0.833h-8.165a0.817,0.817,0,0,0-.795.833h0A0.817,0.817,0,0,0,711.741,33.545Zm8.35-1.975c0,2.453-1.9,4.842-4.24,4.842s-4.239-2.389-4.239-4.842A4.244,4.244,0,1,1,720.091,31.569Zm-8.5.29L712,32.46V30.814l5.675-2.537,2.108,2.692-0.074,1.356,0.333-.368s1.072-5.036-4.092-5.049C711.187,26.9,711.593,31.86,711.593,31.86Zm5.2,0.523a0.494,0.494,0,1,0,.493-0.516A0.505,0.505,0,0,0,716.788,32.383Zm-2.859,0a0.494,0.494,0,1,0,.493-0.516A0.505,0.505,0,0,0,713.929,32.383Z" transform="translate(-708 -26)"/>
</svg>
