<svg xmlns="http://www.w3.org/2000/svg" width="13" height="14" viewBox="0 0 13 14">
  <metadata><?xpacket begin="﻿" id="W5M0MpCehiHzreSzNTczkc9d"?>
<x:xmpmeta xmlns:x="adobe:ns:meta/" x:xmptk="Adobe XMP Core 5.6-c142 79.160924, 2017/07/13-01:06:39        ">
   <rdf:RDF xmlns:rdf="http://www.w3.org/1999/02/22-rdf-syntax-ns#">
      <rdf:Description rdf:about=""/>
   </rdf:RDF>
</x:xmpmeta>
                                                                                                    
                                                                                                    
                                                                                                    
                                                                                                    
                                                                                                    
                                                                                                    
                                                                                                    
                                                                                                    
                                                                                                    
                                                                                                    
                                                                                                    
                                                                                                    
                                                                                                    
                                                                                                    
                                                                                                    
                                                                                                    
                                                                                                    
                                                                                                    
                                                                                                    
                                                                                                    
                           
<?xpacket end="w"?></metadata>
<defs>
    <style>
      .cls-1 {
        fill: #524fd6;
        fill-rule: evenodd;
      }
    </style>
  </defs>
  <path class="cls-1" d="M757,43.866c3.268,1.5,10.654,1.5,13,0,0-3.23-2.909-5.142-6.5-5.142S757,40.636,757,43.866Zm2.484-7.922a25.633,25.633,0,0,0,7.783.054,3.3,3.3,0,0,0-3.368-4.664c-0.057-.077-0.115-0.168-0.215-0.31A3.832,3.832,0,0,0,759.481,35.945Zm3.975,5.079h0a1.609,1.609,0,0,0,1.682-1.514V38.136a1.609,1.609,0,0,0-1.682-1.514h0a1.609,1.609,0,0,0-1.682,1.514V39.51A1.609,1.609,0,0,0,763.456,41.024Zm-0.091-1.374h0.209a1.608,1.608,0,0,0,1.681-1.514h0a1.608,1.608,0,0,0-1.681-1.514h-0.209a1.609,1.609,0,0,0-1.682,1.514h0A1.609,1.609,0,0,0,763.365,39.649Zm-3.654-2.424h7.256a0.617,0.617,0,0,0,.645-0.581V36.487a0.617,0.617,0,0,0-.645-0.581h-7.256a0.617,0.617,0,0,0-.646.581v0.157A0.618,0.618,0,0,0,759.711,37.225Zm7.58-1.71a3.91,3.91,0,0,1-7.819,0A3.931,3.931,0,0,1,767.291,35.516Zm-7.81.429,0.32,0.279,0-1.082a14.406,14.406,0,0,1,7.206-.05c0,0.379-.06,1.1-0.06,1.1L767.264,36s0.97-4.12-3.792-4.175C758.657,31.767,759.481,35.945,759.481,35.945Zm4.764,0.882a0.457,0.457,0,1,0,.455-0.409A0.433,0.433,0,0,0,764.245,36.827Zm-2.637,0a0.458,0.458,0,1,0,.455-0.409A0.434,0.434,0,0,0,761.608,36.827Z" transform="translate(-757 -31)"/>
</svg>
